<?xml version="1.0" encoding="utf-8"?>
<!-- Generator: Adobe Illustrator 23.0.6, SVG Export Plug-In . SVG Version: 6.00 Build 0)  -->
<svg version="1.1" id="Layer_1" xmlns="http://www.w3.org/2000/svg" xmlns:xlink="http://www.w3.org/1999/xlink" x="0px" y="0px"
	 width="864px" height="864px" viewBox="0 0 864 864" enable-background="new 0 0 864 864" xml:space="preserve">
<g>
	<path d="M766.4829,189.3792c-5.4863-9.343-8.7783-19.1876-14.0454-29.0635c-9.249-17.3691-36.6821-59.4751-49.5366-78.8194
		c-5.9883-9.0294-13.231-14.955-20.1597-22.9185c-13.8262-15.8642-29.9727-28.8127-49.8496-36.3999
		c-19.8149-7.5558-50.6025-6.1136-62.2344,14.7982c-25.3638-14.3279-86.6887-9.7192-116.5046-10.5343
		c-32.0105-0.8779-58.4719,1.3481-88.7893,8.2143c-5.769,1.3168-20.5359,5.7688-24.925,4.2325
		c-18.78-6.4899-32.7004-11.8825-53.4241-9.3743c-16.8362,2.0379-32.8572,8.0889-46.1819,18.5919
		c-6.678,5.2672-10.4089,9.7819-18.0901,14.2339c-24.3293,14.1085-84.2122,106.4093-98.4773,129.0142
		c-8.0889,12.8857-14.9236,27.9975-23.3259,41.3536c-10.4717,16.648-36.3059,76.4053-27.1199,97.3799
		c9.2803,21.1313,26.0225,18.0588,45.3352,15.6761c11.4438-1.3795,16.5542-0.9719,28.5933-3.7936
		c9.3745-2.1946,17.2124-3.8563,26.6807-5.612c18.9368-3.4801,34.5503-11.5063,51.4805-14.9864
		c5.5181,10.8479,16.5225,25.8656,25.3953,32.7944c16.9614,13.2933,15.582,12.8857,34.3933,23.765l28.4678,11.7257
		c-2.1006,25.8969-13.2305,50.6024-20.6924,75.4333c-7.5559,25.1131-14.8296,50.2889-21.3196,75.7155
		c-7.3677,28.6873-9.782,54.1453-13.9832,83.0519c-6.9915,48.0316-8.5903,79.5719,4.7969,125.158
		c4.1699,14.2339,9.0923,21.2568,14.2969,34.2053c7.2734,18.1216,33.7974,37.6853,51.0413,45.9309
		c33.6409,16.0522,48.2822,11.1927,83.8357,12.9485c45.0845,2.226,137.6047,9.3115,177.8926-3.8877
		c27.1821-8.9041,36.5249-24.2352,56.9668-40.0367c15.9893-12.3528,24.2666-21.9152,35.9297-36.2745
		c3.7935-4.7028,8.3081-8.1516,12.1646-12.6663c11.9766-14.0144,27.1509-49.7246,29.189-67.7521
		c5.894-52.9537,4.0444-82.9891,0.1567-134.2501c-0.9722-12.3841-5.2988-28.0602-7.9321-40.6324
		c-5.2988-25.458-10.5029-51.6057-21.5391-75.3707c-5.1416-11.036-10.8164-21.5703-15.9897-32.5122
		c-4.2324-8.9354-11.4434-25.6775-23.4199-23.232c-9.437,11.0359,0.8462,30.9446,3.48,42.1373l14.2969,41.7611
		c15.9893,50.1008,14.4219,44.7083,12.5718,98.4772c-1.0972,31.9792-8.6528,63.1432-18.7798,93.2728
		c-3.731,11.0986-30.4429,71.7025-37.2778,76.1232c-2.4141-4.2013-15.4253-83.585-19.1563-99.7941
		c-1.5049-6.6154-2.5708-13.0111-4.1694-19.4697l-19.9087-74.9004c-1.8188-6.5839-2.5396-13.1993-4.0762-19.6891
		c-1.5361-6.4899-3.5737-11.569-5.0786-18.5605c-2.8848-13.356-5.1108-25.458-8.6533-38.814
		c-1.5361-5.6747-9.9387-35.2712-9.9387-38.3438c3.6682-1.6303,26.3987-3.6368,42.2942-13.6068
		c21.4448-13.4188,60.4468-49.223,66.1846-74.9004c1.1284-5.0477,2.978-22.4168,4.2012-25.0504
		c8.8726-1.2227,22.0718,7.1797,31.4146,9.1548c27.5586,5.8629,48.0005,16.9302,69.3823,4.2953
		c8.998-5.3299,14.7671-15.5193,17.8081-25.2072C797.8979,267.4461,781.2813,214.6177,766.4829,189.3792z M641.7324,727.1318
		c8.7788-12.1019,34.8325-71.3575,42.6704-87.7234c8.4028-17.6199,14.1401-74.4301,13.1367-94.4642
		c-0.3135-6.2704-1.7241-13.9517-1.4736-20.1908c3.8564-1.5676,12.541-3.6368,16.6792-3.4801
		c7.2739,40.0054,11.4751,87.7862,7.1484,128.6068c-3.8564,36.3372-12.5093,74.9003-37.6226,101.6123
		c-10.5972,11.2555-35.4595,40.0054-48.251,45.931l-0.1255-19.6265C632.7344,753.2168,625.2729,749.7681,641.7324,727.1318z
		 M223.9021,309.3953c-17.0557,6.678-35.0203,11.1614-52.4836,16.3658l-58.9106,10.597
		c-30.6938,2.226-33.9858-7.0543-26.1477-34.0172c5.0164-17.3378,12.7603-33.5468,18.9993-50.1008
		c8.0264-21.2881,24.2041-46.8715,36.3999-67.0937c4.6401-7.6813,7.0542-15.5193,11.6003-22.9185
		c8.7161-14.2653,19.5325-26.6494,28.217-40.7892c7.2424-11.8198,21.1941-28.2484,31.6658-37.3405
		c42.1687-36.588,21.0686-19.5952,61.7952-41.8239c12.5408-6.8348,12.729-7.5558,28.1855-6.4586
		c7.1482,0.5016,20.4102,3.6369,26.4612,7.4619c7.7126,4.9223-4.6714,11.7884-9.2488,17.5259
		c-11.3181,14.1398-18.7173,25.8655-27.3079,41.7297c-16.7107,30.8506-30.7251,64.8677-38.9707,98.9789
		c-2.1006,8.8099-5.8628,16.8047-7.8381,26.4612c-1.9751,9.5938-3.6367,19.2816-5.7061,28.9694l-9.876,41.6984
		C229.8276,304.3163,229.7336,307.1066,223.9021,309.3953z M398.6592,798.8657c-1.0659,9.625-3.6995,21.4448-7.3992,30.3489
		l-36.2744,0.3135l-3.8877-33.1079c-2.947-27.8408-8.4023-75.5273-6.772-100.4524c0.5642-8.5278,0.188-25.9596-0.533-34.5188
		c-1.0347-12.6035,0.4075-19.501,1.9751-31.791c1.8496-14.3594,3.9189-53.2361,24.0156-51.1982
		c11.6318,1.1914,14.8923,9.2175,18.1843,18.6545c3.0413,8.6218,6.051,19.4385,7.0857,28.5305
		c1.3481,11.6003,1.3794,23.0752,2.5083,34.2053c1.2227,12.0078,2.2886,22.8243,2.696,34.9576
		c0.3762,11.8824-0.0313,22.6676,0,34.4874c0.0315,6.2078,1.2229,11.2554,1.2854,17.1497
		c0.0627,6.4899-0.376,12.6975,0.1882,19.1875C402.6409,776.3235,399.8818,787.9551,398.6592,798.8657z M539.3052,801.2798
		c-1.0659,10.4717,0.0313,25.7087-1.7871,35.083c-5.1731,3.292-35.5847,1.5364-43.6736,0.8779
		c-0.1882-7.8694-3.8877-23.8904-5.5808-32.23c-1.9751-9.7506-3.2292-23.5457-4.1699-33.6724
		c-3.48-37.842-3.574-30.7251-0.7524-67.8774c1.5991-21.3508,0-45.5234,4.6089-66.4039
		c3.0413-13.7635,6.2078-50.9786,17.8081-58.8167c16.9614-11.4122,25.207,34.6755,26.6179,44.7709
		c1.5989,11.6003,3.4175,22.1346,3.6682,33.9858c0.251,11.4121-1.6304,26.9314-0.439,37.3091
		C537.1104,707.2546,540.8413,786.3247,539.3052,801.2798z M562.9448,477.0981c4.8281,19.2189,7.9004,39.2843,12.8857,58.2838
		c5.9565,22.5422,14.2339,66.2471,21.915,84.7763c3.7935,9.1235,3.731,19.7832,7.0854,29.5651
		c9.2803,27.2137,16.46,90.3257,21.1943,122.3363c1.0659,7.3049-0.0313,23.5142-1.2544,30.7565
		c-1.6929,9.9386-8.9663,13.7323-17.5259,18.153c-15.6758,8.0889-39.6602,13.0737-57.2175,14.9863
		c-1.8186-24.5488-0.439-49.1917-3.2607-73.3641c-3.1038-26.3986-0.5642-82.0173-1.2227-112.0214
		c-0.2195-10.0955-3.4487-23.8904-5.8628-33.8291c-3.6057-14.9236-10.0955-50.9159-30.5056-49.1288
		c-32.1675,2.853-36.4626,98.728-36.6196,121.7719l3.4175,76.4053c0.9092,11.7885,0.9719,23.7023,1.8811,35.7729
		c0.8152,10.9419,3.6057,24.1724,3.2607,34.3933c-9.6252-0.1882-63.5823-4.4207-68.3479-7.4932
		c-1.4106-4.6401-0.9092-31.1956-0.7209-37.7794c0.4702-18.9681-2.4143-18.3411-2.3516-34.4247
		c0.0627-12.635-2.2258-24.3606-2.0378-36.7134c0.2195-13.1052-0.0313-26.7122-0.094-39.8801
		c-0.094-25.3325-1.6616-120.3923-45.1472-109.8893c-11.6943,2.8531-12.6975,11.7257-17.5259,21.194
		c-5.7688,11.3181-8.1201,15.1118-10.6909,28.0603c-5.4241,27.3077-6.835,42.6077-4.0759,70.7305
		c0.5957,6.3018,0.0627,10.5657,0.533,16.3345l16.6167,121.239c-8.6846-5.2672-14.3906-4.0759-24.7996-11.7258
		c-8.3083-6.1136-13.7949-7.4932-20.9746-15.676c-5.2043-5.8943-14.3279-12.2273-17.5259-19.1563
		c-3.198-6.8975-9.6565-18.6858-11.6943-25.019c-16.021-50.0067-13.9204-77.3145-6.5212-128.6067
		c3.0098-20.8491,8.4963-40.3502,12.384-60.7291c1.9438-10.2521,3.2607-20.8806,5.8-31.0386l16.9932-54.0198
		c4.1384-11.7257,10.158-45.4607,13.9517-59.4437c2.6335-9.7819,5.894-19.1562,8.4963-29.1889l53.8318,10.1581
		c17.7139,4.6401,39.1902,3.8877,57.155,7.5559c4.0444,0.8465,8.2141,1.8811,12.1333,2.7903l43.9243,4.6714
		c21.4451,2.8217,38.7512,1.6931,59.9456,0.8779c2.5708,10.3149,3.3545,19.6265,5.2983,29.9727
		C557.3325,457.6284,560.6875,468.1001,562.9448,477.0981z M651.7969,340.4653c-17.8394,35.8983-61.9521,66.5607-102.6157,66.2785
		c-5.3926-1.1287-31.4778,0.9719-39.1904,1.1287c-32.5747,0.6271-68.1282-8.5905-101.0166-11.9765
		c-14.4221-1.4736-33.0767-4.7028-47.624-7.1483c-34.895-5.8629-50.8218-9.5311-82.0488-26.9629
		c-13.2305-7.3991-19.7517-14.2652-30.2234-24.8309c-15.4565-15.6133-14.7668-18.1215-10.2834-39.7546
		c3.0725-14.7042,5.3613-29.6278,9.8132-43.9871c11.0671-35.6788,41.9177-130.2997,60.0393-158.8616
		c27.4019-43.266,25.4895-45.5547,83.3655-54.835c37.3406-5.9569,29.9729-6.6153,73.2388-6.584
		c27.6213,0.0627,49.6306-0.5643,77.2205,5.1418c26.7119,5.518,31.9478,17.6513,45.1787,40.1308
		c10.8789,18.4351,21.1626,37.4972,28.6558,57.594c4.0757,10.9105,5.4238,22.4168,9.437,33.7036
		c11.8511,33.202,20.0654,66.1218,27.5898,100.7346C658.5376,294.2836,663.3027,317.2961,651.7969,340.4653z M752.8447,310.7435
		c-15.519,0.3448-36.3369-3.8563-50.1006-11.2554c-7.4307-3.9818-13.4189-6.7721-21.1313-10.1268
		c-10.3774-4.4834-12.9175-2.8844-15.1431-15.1431c-5.8315-32.2614-16.3032-66.3099-26.3047-97.5994
		c-2.5708-7.9948-4.2324-16.6166-6.772-24.5801c-4.7656-15.0177-19.1563-51.6057-27.5273-65.1185
		c-8.6846-13.983-15.6763-22.8871-26.0225-35.5847c-10.4712-12.8231,18.686-24.0785,28.2485-25.3326
		c15.0488-1.9752,31.7598,6.3018,42.6704,16.0524c11.3496,10.1581,22.103,16.1777,32.23,29.1888l25.3325,37.2464
		c21.4136,32.4495,52.8599,86.4694,64.2095,121.3016C780.8423,255.3441,796.1421,309.7715,752.8447,310.7435z"/>
	<path d="M385.3345,212.7051c-5.5181,13.3247-0.533,32.8571,13.2935,39.347c21.6643,10.2208,25.3325,8.7159,49.0347,10.0954
		c23.8591,1.3795,57.4058-2.5396,56.3086-32.0733c-0.188-4.9537-0.5645-8.9041-1.9751-13.4814
		c-1.2856-4.2012-3.5742-6.6153-4.4521-9.7819c4.7341,1.4108,8.7158,1.5049,13.5757,2.853l27.4331,7.1169
		c4.7026,1.8498,7.7124,4.4834,12.3525,4.4207c1.3481-7.1483-1.0032-7.1796-6.4585-10.3149
		c-3.041-1.7557-9.1548-4.6088-12.478-5.8315c-8.0576-2.9471-18.3411-4.5775-26.4614-6.8661
		c-18.8425-5.2985-41.1025-9.2175-60.1333-6.8975c-11.3496,1.4108-20.8806,0.1567-32.2615,3.1979
		c-9.092,2.4454-19.5325,3.6368-28.2483,7.3364c-5.8315,2.4455-39.6919,22.5422-43.8303,27.1824
		c4.0444,12.3841,14.5159,0.8152,20.6924-2.9158L385.3345,212.7051z M435.2786,215.5895
		c10.4717-1.5363,17.6511-0.8465,26.8374,3.5428l-2.3513,11.2241c-7.6187,4.2325-48.8154,6.3331-48.6899-7.9634
		C411.1372,216.0599,430.0427,216.342,435.2786,215.5895z"/>
	<path d="M617.1523,278.3253l-26.4297-31.7911c-3.3857-4.7969-6.5527-16.6166-14.4849-12.1333
		c-1.2227,5.7061,9.3433,20.4417,11.9453,25.8655c-3.229,6.4272-16.6479,11.6003-23.2319,16.021
		c-13.3247,8.9354-37.7168,19.0934-52.7656,23.7963c-18.9055,5.9256-48.4392,8.7159-68.1284,6.9288
		c-10.064-0.9406-8.9353,2.2574-32.0105-1.2227c-10.8792-1.6303-21.6643-3.6682-32.6062-5.2045
		c-6.2393-0.8779-10.1895-1.4422-16.3345-3.2292c-5.4241-1.6303-9.8135-3.7623-14.0459-1.0033
		c-0.6897,5.7375,5.5181,6.584,10.5657,8.6219c10.2522,4.1698,38.6257,8.7473,50.1633,10.3148
		c17.4006,2.3828,39.4412,2.665,57.2805,2.0693c5.7688-0.1881,11.5691-1.5676,17.2124-2.132
		c4.7969,5.8629,6.145,13.7636,10.2522,19.9714c11.2241,17.0869,12.6035,25.8029,25.3638,33.923
		c6.1765,3.919,12.0393,9.1235,20.4419,8.6219c5.9253-0.3763,14.4531-7.2111,17.6826-12.4468
		c5.7373-9.2803,6.4897-12.6036,4.8594-23.859c-1.0029-6.9288-2.4453-18.3724-4.7969-24.5174
		c-2.0691-5.424-6.678-17.3065-7.0229-22.5109l43.2036-25.7087c3.1978,1.787,14.2021,12.5095,17.7764,15.8328
		c12.5723,11.6944,10.2212,15.5193,17.4946,11.0987C629.8501,289.2672,621.3223,282.4951,617.1523,278.3253z M555.0125,337.2674
		c4.5774,17.6826-10.2834,56.1518-45.147,10.597c-4.1699-5.4553-15.739-27.4332-16.115-33.7036
		c1.7241-0.9719,0.188-0.3135,2.6021-0.9406c1.2227-0.3135,2.4141-0.4703,3.6682-0.7211c2.1633-0.4389,3.9504-1.0032,6.0198-1.3481
		c4.4519-0.7524,8.3081-1.1287,12.729-2.2887c3.574,6.7094,7.0542,13.0112,10.0012,20.1281
		c1.2227,2.9785,3.0725,7.6813,4.2952,10.8792c2.4771,6.584,0.7524,6.0197,1.0974,11.6317
		c10.1267-3.7936,9.7505-0.2508,2.4141-19.5637c-2.6648-7.0543-8.6218-18.2156-10.3774-24.5488
		c2.9158-1.599,13.7949-6.8348,16.5852-7.211C549.6199,313.4398,551.7207,324.5071,555.0125,337.2674z"/>
	<path d="M517.7034,163.0746c23.8279-25.7401,11.0674-67.9716-5.1416-58.9421c-2.0693,1.16-9.0923,10.3776-10.2522,12.3841
		c-3.4175,5.8315-4.9224,28.3423-0.4077,38.7827C504.7864,161.946,510.5239,163.4196,517.7034,163.0746z"/>
	<path d="M370.2227,158.0583c7.2739-5.8942,26.3359-50.2889-2.3828-50.7905c-2.4766-0.0627-7.5244,0.8779-8.0574,1.2541
		c-7.9634,5.7688-17.6199,40.2249-6.7092,50.0381C357.4312,162.4789,365.7708,161.6638,370.2227,158.0583z"/>
	<path d="M206.7837,129.1516c-8.4336-1.5049-9.4995,0.9719-14.1711,6.5526c-3.198,3.7936-6.239,7.2423-8.9666,11.5062
		c-4.2639,6.584-14.2339,22.2287-11.3184,29.377c10.4092,2.7276,17.0869-11.4435,22.2915-18.3724
		C200.1685,150.7532,209.2292,139.5919,206.7837,129.1516z"/>
	<path d="M236.4429,105.2926c8.0576-2.6336,16.7109-11.6003,22.0093-18.0275c7.4307-8.9354,17.0557-14.2966,2.665-21.8839
		C239.7349,79.1135,218.635,111.1555,236.4429,105.2926z"/>
	<path d="M250.0811,124.0412c-4.0444,1.9438-21.0371,29.4711-23.9529,35.4593c-2.0066,4.0444-3.4175,13.9517,4.3892,9.9073
		c8.6846-4.546,20.7551-24.2666,25.1445-34.2052C258.1699,129.4965,255.1289,121.5957,250.0811,124.0412z"/>
	<path d="M219.356,200.1643c-3.6995,6.5526-15.0488,37.748-11.0986,41.9178c9.4998,10.0327,24.6743-39.441,21.978-47.9688
		C223.1182,192.2949,222.6794,194.3328,219.356,200.1643z"/>
	<path d="M179.5073,204.8671c-3.0725-1.8184-3.1038,0.4389-5.5806,1.4422c-4.3267,1.787-1.9438-1.066-5.2986,1.4108
		c-2.6023,1.9438-15.3938,27.2764-10.4402,36.8702C169.0984,247.6315,185.7151,208.5353,179.5073,204.8671z"/>
	<path d="M113.6677,273.4971c-8.0261,7.0229-15.6448,23.7022-12.5095,34.5814c7.1484,2.4455,13.7009-9.0921,15.8643-15.0177
		c2.1318-5.8942,8.3711-18.4351,6.3645-24.3606C117.5869,265.9725,117.8062,269.8915,113.6677,273.4971z"/>
	<path d="M671.1411,247.318c0.9404,4.8909,8.0576,17.8394,10.9731,21.0687c1.4736,1.5676,6.6152,7.2737,8.4023,7.5245
		c4.7656,0.6898,5.2671-6.3332,4.6089-9.7819C692.5859,252.5538,666.1563,221.1702,671.1411,247.318z"/>
	<path d="M136.5549,300.6167c-1.5049,4.2012-9.97,20.0027-6.929,23.2006c11.0361,11.4435,23.7964-32.4182,21.978-39.2216
		C141.9788,282.8713,139.2197,293.0922,136.5549,300.6167z"/>
	<path d="M746.4492,259.4513c-7.2739,12.7917,4.0439,36.5566,15.9893,38.187c5.2988-5.7061,0.8779-16.0837-1.9438-22.5422
		C758.3003,270.1424,751.3398,260.6113,746.4492,259.4513z"/>
	<path d="M712.2437,162.6671c-4.2954,7.1797,4.7969,17.6513,8.0889,24.3293c3.2607,6.5839,10.1895,18.4351,18.0903,17.9962
		C740.7114,186.3066,715.7866,163.4509,712.2437,162.6671z"/>
	<path d="M680.2334,211.451c3.1665-8.5278-0.063-15.3939-4.8599-22.6362c-3.5742-5.4553-8.1201-14.0145-14.0771-15.6448
		C654.9634,183.3909,666.9087,211.1062,680.2334,211.451z"/>
	<path d="M633.8945,105.8569c-3.8877,10.0013,13.9834,42.2,21.2881,35.428c8.2144-7.6186-7.6812-24.4547-12.5405-29.6592
		C639.5068,108.2397,638.0645,104.352,633.8945,105.8569z"/>
	<path d="M687.6636,118.5859c6.396-6.8348-17.5571-36.1177-24.4858-34.2679C657.8164,96.7648,683.0234,123.5709,687.6636,118.5859z"
		/>
	<path d="M672.1445,136.4567c-3.8877,9.0294,0.125,13.1052,4.5146,20.9432c13.0107,23.326,26.3042,15.582,10.6909-6.3958
		C684.1211,146.458,677.2861,136.5507,672.1445,136.4567z"/>
	<path d="M606.3047,55.662c-1.4736,10.6911,1.1602,9.7819,6.4897,18.9367c3.104,5.3926,8.3398,12.3842,14.5474,13.795
		C638.3779,77.295,615.3027,55.035,606.3047,55.662z"/>
	<path d="M203.1782,269.2645c-3.386,2.9157-2.7275,4.4833-3.4172,9.343c-0.6584,4.8909-4.4834,18.874-0.8152,22.3854
		c9.7505,9.3743,13.3247-30.004,12.0078-35.8356C207.5989,264.9066,205.5923,267.1953,203.1782,269.2645z"/>
	<path d="M513.4709,615.0164c-13.7322,2.3516-7.9949,23.8276-5.4553,26.8689c1.1914,1.4421,6.4585,4.7341,8.0889,4.8596
		C521.3403,641.5718,519.4277,619.7506,513.4709,615.0164z"/>
	<path d="M708.9204,220.7627c-1.1914,9.2802,6.9917,25.8655,15.8013,28.4678c7.6187-4.9537,3.4805-12.3841-0.627-18.5292
		C716.915,220.0416,714.5322,219.3518,708.9204,220.7627z"/>
	<path d="M172.3276,288.6715c11.5063,4.3893,17.5259-30.3802,14.2026-33.7036C181.4512,249.8889,168.8477,277.855,172.3276,288.6715
		z"/>
	<path d="M368.7805,784.3809c-3.5427,6.7095-4.2639,6.5527-3.9189,14.9237c0.188,4.891,1.4109,10.6284,5.1418,13.889
		C380.7886,812.5665,383.4849,784.9766,368.7805,784.3809z"/>
	<path d="M498.5786,689.0389c12.5095-0.439,10.0327-23.0752,4.0444-29.6906c-9.1548,0-8.1201,4.5774-7.8381,12.7604
		C495.0044,678.2852,494.2207,684.5869,498.5786,689.0389z"/>
	<path d="M366.5547,639.5338c5.3926-0.8466,5.5493-11.036,4.9849-15.2999c-0.8152-6.1135-0.5957-13.6694-5.9255-16.7107
		c-6.7095,3.3861-5.4241,8.7787-5.3926,16.0837C360.2527,628.1216,359.3123,640.6938,366.5547,639.5338z"/>
	<path d="M518.8635,725.8777c8.4336-4.1698,8.0261-29.2202-2.2573-32.0105c-6.1765,3.6995-4.1384,9.1862-3.292,16.1464
		C513.9727,715.5315,513.5962,723.6831,518.8635,725.8777z"/>
	<path d="M638.2212,59.9886c5.1416,4.2953,8.1201,11.4122,14.8608,10.0641c1.5049-9.437-1.0347-11.2868-7.3047-16.5226
		c-5.6436-4.6714-8.4341-8.9667-16.7109-8.5905C628.9409,51.4922,633.769,56.2264,638.2212,59.9886z"/>
	<path d="M514.4114,781.0262c-2.9158,7.9008-2.1633,19.5011,2.5396,26.5867c14.7983,1.2854,7.8069-19.5011,3.6682-26.2418
		L514.4114,781.0262z"/>
	<path d="M140.6934,220.0103c-8.1201-1.4109-20.4102,21.2568-15.9268,25.6461C132.5105,253.1495,143.2957,229.071,140.6934,220.0103
		z"/>
	<path d="M381.8545,728.7622c7.2422-1.9438,5.5493-12.196,4.4834-18.0588c-1.3796-7.4932-1.4736-14.9237-9.5938-8.2144
		C376.1797,710.0762,374.6436,724.4669,381.8545,728.7622z"/>
	<path d="M382.8577,743.6544c-9.8445,3.6682-5.7375,24.5802-0.2507,27.0256C391.0093,774.4736,390.4763,749.3918,382.8577,743.6544z
		"/>
	<path d="M352.8223,719.5759c0.094,4.0758,0.439,14.0144,5.3298,14.5474c11.4749,1.1914,4.7969-21.9778,0.5957-26.9628
		C353.23,709.2611,352.6655,712.8979,352.8223,719.5759z"/>
	<path d="M504.1592,721.6765c-0.5642-8.9353-1.4106-9.97-8.8726-11.5376c-3.48,5.3298-2.1006,20.5671,3.0098,25.3325
		C504.4729,733.9666,504.5042,727.4767,504.1592,721.6765z"/>
	<path d="M384.0176,677.4072c5.7063-2.759,4.2954-8.6531,3.5117-14.4846c-0.8154-6.0824-0.7839-10.8793-7.8381-11.036
		C376.0229,657.1851,376.9321,674.4915,384.0176,677.4072z"/>
	<path d="M362.1965,687.0325c2.3516-5.7688,3.4487-22.4169-3.6055-24.1099c-9.0295-2.1633-3.7622,19.7205-1.2542,23.9844
		L362.1965,687.0325z"/>
	<path d="M516.6375,739.8608c-3.292,4.4834-3.198,22.5735,3.825,25.5208C526.3252,759.8008,524.2561,741.4912,516.6375,739.8608z"/>
	<path d="M494.8477,753.3423c-5.6121-0.8464-4.2012,4.8909-3.5742,8.8099c0.8779,5.3926,0.3765,9.4056,4.9536,12.0079
		C504.7549,771.4639,500.8359,754.2515,494.8477,753.3423z"/>
	<path d="M501.1494,804.1956l-4.7654,3.825c0.2507,5.7374,2.5393,15.1118,8.3708,17.0555
		C511.1196,819.9971,506.793,808.3654,501.1494,804.1956z"/>
	<path d="M520.9326,678.2224c4.0444-3.731,6.1765-15.0177-1.0659-17.714C514.6624,664.4902,514.8503,675.0872,520.9326,678.2224z"/>
</g>
</svg>
